<svg xmlns="http://www.w3.org/2000/svg" viewBox="0 0 240 40" preserveAspectRatio="none">
  <rect x="0" y="0" width="2" height="40" fill="white"/>
  <rect x="4" y="0" width="1" height="40" fill="white"/>
  <rect x="7" y="0" width="3" height="40" fill="white"/>
  <rect x="12" y="0" width="1" height="40" fill="white"/>
  <rect x="15" y="0" width="2" height="40" fill="white"/>
  <rect x="19" y="0" width="4" height="40" fill="white"/>
  <rect x="25" y="0" width="1" height="40" fill="white"/>
  <rect x="28" y="0" width="2" height="40" fill="white"/>
  <rect x="32" y="0" width="1" height="40" fill="white"/>
  <rect x="35" y="0" width="3" height="40" fill="white"/>
  <rect x="40" y="0" width="2" height="40" fill="white"/>
  <rect x="44" y="0" width="1" height="40" fill="white"/>
  <rect x="47" y="0" width="4" height="40" fill="white"/>
  <rect x="53" y="0" width="2" height="40" fill="white"/>
  <rect x="57" y="0" width="1" height="40" fill="white"/>
  <rect x="60" y="0" width="3" height="40" fill="white"/>
  <rect x="65" y="0" width="1" height="40" fill="white"/>
  <rect x="68" y="0" width="2" height="40" fill="white"/>
  <rect x="72" y="0" width="4" height="40" fill="white"/>
  <rect x="78" y="0" width="1" height="40" fill="white"/>
  <rect x="81" y="0" width="2" height="40" fill="white"/>
  <rect x="85" y="0" width="1" height="40" fill="white"/>
  <rect x="88" y="0" width="3" height="40" fill="white"/>
  <rect x="93" y="0" width="2" height="40" fill="white"/>
  <rect x="97" y="0" width="1" height="40" fill="white"/>
  <rect x="100" y="0" width="4" height="40" fill="white"/>
  <rect x="106" y="0" width="2" height="40" fill="white"/>
  <rect x="110" y="0" width="1" height="40" fill="white"/>
  <rect x="113" y="0" width="3" height="40" fill="white"/>
  <rect x="118" y="0" width="1" height="40" fill="white"/>
  <rect x="121" y="0" width="2" height="40" fill="white"/>
  <rect x="125" y="0" width="4" height="40" fill="white"/>
  <rect x="131" y="0" width="1" height="40" fill="white"/>
  <rect x="134" y="0" width="2" height="40" fill="white"/>
  <rect x="138" y="0" width="1" height="40" fill="white"/>
  <rect x="141" y="0" width="3" height="40" fill="white"/>
  <rect x="146" y="0" width="2" height="40" fill="white"/>
  <rect x="150" y="0" width="1" height="40" fill="white"/>
  <rect x="153" y="0" width="4" height="40" fill="white"/>
  <rect x="159" y="0" width="2" height="40" fill="white"/>
  <rect x="163" y="0" width="1" height="40" fill="white"/>
  <rect x="166" y="0" width="3" height="40" fill="white"/>
  <rect x="171" y="0" width="1" height="40" fill="white"/>
  <rect x="174" y="0" width="2" height="40" fill="white"/>
  <rect x="178" y="0" width="4" height="40" fill="white"/>
  <rect x="184" y="0" width="1" height="40" fill="white"/>
  <rect x="187" y="0" width="2" height="40" fill="white"/>
  <rect x="191" y="0" width="1" height="40" fill="white"/>
  <rect x="194" y="0" width="3" height="40" fill="white"/>
  <rect x="199" y="0" width="2" height="40" fill="white"/>
  <rect x="203" y="0" width="1" height="40" fill="white"/>
  <rect x="206" y="0" width="4" height="40" fill="white"/>
  <rect x="212" y="0" width="2" height="40" fill="white"/>
  <rect x="216" y="0" width="1" height="40" fill="white"/>
  <rect x="219" y="0" width="3" height="40" fill="white"/>
  <rect x="224" y="0" width="1" height="40" fill="white"/>
  <rect x="227" y="0" width="2" height="40" fill="white"/>
  <rect x="231" y="0" width="4" height="40" fill="white"/>
  <rect x="237" y="0" width="1" height="40" fill="white"/>
</svg>